<svg width="18" height="18" viewBox="0 0 18 18" fill="none" xmlns="http://www.w3.org/2000/svg">
<path d="M8.84173 17.1765C7.07937 17.1765 5.52458 16.8282 4.17637 16.1317C2.84911 15.4131 1.81625 14.4002 1.07677 13.0939C0.35826 11.7886 0 10.2857 0 8.58825C0 6.88976 0.35826 5.38787 1.07677 4.08156C1.81625 2.77526 2.84911 1.77433 4.17637 1.07777C5.52458 0.359258 7.07937 0 8.84173 0C10.6041 0 12.1479 0.359258 13.4742 1.07777C14.8234 1.77433 15.8572 2.77526 16.5747 4.08156C17.3142 5.38787 17.6835 6.88976 17.6835 8.58825C17.6835 10.3077 17.3142 11.8206 16.5747 13.1269C15.8572 14.4112 14.8234 15.4131 13.4742 16.1317C12.1479 16.8282 10.6041 17.1765 8.84173 17.1765ZM8.84173 13.4213C10.1251 13.4213 11.137 12.9752 11.8765 12.082C12.6369 11.1899 13.0181 10.0253 13.0181 8.58825C13.0181 7.15122 12.6369 5.98663 11.8765 5.09447C11.137 4.20132 10.1251 3.75524 8.84173 3.75524C7.58033 3.75524 6.56843 4.20132 5.808 5.09447C5.06852 5.98663 4.69829 7.15122 4.69829 8.58825C4.69829 10.0253 5.06852 11.1899 5.808 12.082C6.56843 12.9752 7.58033 13.4213 8.84173 13.4213Z" fill="#222221"/>
</svg>
