<svg width="25" height="25" viewBox="0 0 25 25" fill="none" xmlns="http://www.w3.org/2000/svg">
<path d="M22.9534 9.49594C22.5411 9.065 22.1145 8.62094 21.9538 8.23047C21.805 7.87281 21.7963 7.28 21.7875 6.70578C21.7711 5.63828 21.7536 4.42859 20.9125 3.5875C20.0714 2.74641 18.8617 2.72891 17.7942 2.7125C17.22 2.70375 16.6272 2.695 16.2695 2.54625C15.8802 2.38547 15.435 1.95891 15.0041 1.54656C14.2494 0.821406 13.3919 0 12.25 0C11.1081 0 10.2517 0.821406 9.49594 1.54656C9.065 1.95891 8.62094 2.38547 8.23047 2.54625C7.875 2.695 7.28 2.70375 6.70578 2.7125C5.63828 2.72891 4.42859 2.74641 3.5875 3.5875C2.74641 4.42859 2.73438 5.63828 2.7125 6.70578C2.70375 7.28 2.695 7.87281 2.54625 8.23047C2.38547 8.61984 1.95891 9.065 1.54656 9.49594C0.821406 10.2506 0 11.1081 0 12.25C0 13.3919 0.821406 14.2483 1.54656 15.0041C1.95891 15.435 2.38547 15.8791 2.54625 16.2695C2.695 16.6272 2.70375 17.22 2.7125 17.7942C2.72891 18.8617 2.74641 20.0714 3.5875 20.9125C4.42859 21.7536 5.63828 21.7711 6.70578 21.7875C7.28 21.7963 7.87281 21.805 8.23047 21.9538C8.61984 22.1145 9.065 22.5411 9.49594 22.9534C10.2506 23.6786 11.1081 24.5 12.25 24.5C13.3919 24.5 14.2483 23.6786 15.0041 22.9534C15.435 22.5411 15.8791 22.1145 16.2695 21.9538C16.6272 21.805 17.22 21.7963 17.7942 21.7875C18.8617 21.7711 20.0714 21.7536 20.9125 20.9125C21.7536 20.0714 21.7711 18.8617 21.7875 17.7942C21.7963 17.22 21.805 16.6272 21.9538 16.2695C22.1145 15.8802 22.5411 15.435 22.9534 15.0041C23.6786 14.2494 24.5 13.3919 24.5 12.25C24.5 11.1081 23.6786 10.2517 22.9534 9.49594ZM21.6902 13.7933C21.1663 14.3402 20.6238 14.9056 20.3361 15.6002C20.0605 16.2673 20.0484 17.0297 20.0375 17.768C20.0266 18.5336 20.0145 19.3353 19.6744 19.6744Cnan nan 18.538 20.0266 17.768 20.0375C17.0297 20.0484 16.2673 20.0605 15.6002 20.3361C14.9056 20.6238 14.3402 21.1663 13.7933 21.6902Cnan nan 12.6875 22.75 12.25 22.75C11.8125 22.75 11.2492 22.2119 10.7067 21.6902Cnan nan 9.59438 20.6238 8.89984 20.3361C8.23266 20.0605 7.47031 20.0484 6.73203 20.0375C5.96641 20.0266 5.16469 20.0145 4.82562 19.6744Cnan nan 4.47344 18.538 4.4625 17.768C4.45156 17.0297 4.43953 16.2673 4.16391 15.6002C3.87625 14.9056 3.33375 14.3402 2.80984 13.7933Cnan nan 1.75 12.6875 1.75 12.25C1.75 11.8125 2.28813 11.2492 2.80984 10.7067Cnan nan 3.87625 9.59438 4.16391 8.89984C4.43953 8.23266 4.45156 7.47031 4.4625 6.73203C4.47344 5.96641 4.48547 5.16469 4.82562 4.82562Cnan nan 5.96203 4.47344 6.73203 4.4625C7.47031 4.45156 8.23266 4.43953 8.89984 4.16391C9.59438 3.87625 10.1598 3.33375 10.7067 2.80984Cnan nan 11.8125 1.75 12.25 1.75C12.6875 1.75 13.2508 2.28813 13.7933 2.80984Cnan nan 14.9056 3.87625 15.6002 4.16391C16.2673 4.43953 17.0297 4.45156 17.768 4.4625C18.5336 4.47344 19.3353 4.48547 19.6744 4.82562Cnan nan 20.0266 5.96203 20.0375 6.73203C20.0484 7.47031 20.0605 8.23266 20.3361 8.89984C20.6238 9.59438 21.1663 10.1598 21.6902 10.7067Cnan nan 22.75 11.8125 22.75 12.25C22.75 12.6875 22.2119 13.2508 21.6902 13.7933ZM17.2441 9.00594C17.4084 9.17006 17.5007 9.39277 17.5007 9.625C17.5007 9.85723 17.4084 10.0799 17.2441 10.2441L11.1191 16.3691C10.9549 16.5334 10.7322 16.6257 10.5 16.6257C10.2678 16.6257 10.0451 16.5334 9.88094 16.3691L7.25594 13.7441C6.91427 13.4024 6.91427 12.8476 7.25594 12.5059C7.59761 12.1643 8.15239 12.1643 8.49406 12.5059L10.5 14.513L16.0059 9.00594C16.1701 8.84163 16.3928 8.74931 16.625 8.74931C16.8572 8.74931 17.0799 8.84163 17.2441 9.00594Z" fill="#1A1816"/>
</svg>
