<svg width="23" height="23" viewBox="0 0 23 23" fill="none" xmlns="http://www.w3.org/2000/svg">
<path d="M22.5182 21.2801L17.0418 15.8048C20.3393 11.8461 19.9397 5.99394 16.1348 2.52009C12.33 -0.953756 6.46575 -0.820482 2.82263 2.82263C-0.820482 6.46575 -0.953756 12.33 2.52009 16.1348C5.99394 19.9397 11.8461 20.3393 15.8048 17.0418L21.2801 22.5182C21.6218 22.8599 22.1766 22.8599 22.5182 22.5182C22.8599 22.1766 22.8599 21.6218 22.5182 21.2801ZM1.77419 9.64919C1.77419 5.30286 5.30286 1.77419 9.64919 1.77419C13.9955 1.77419 17.5242 5.30286 17.5242 9.64919C17.5242 13.9955 13.9955 17.5242 9.64919 17.5242C5.30194 17.5194 1.77901 13.9964 1.77419 9.64919Z" fill="#1A1816"/>
</svg>
