<svg width="16" height="18" viewBox="0 0 16 18" fill="none" xmlns="http://www.w3.org/2000/svg">
<path d="M4.37196 11.4613C4.43783 12.2018 4.79609 12.8005 5.44874 13.2576C6.10139 13.7147 6.93866 13.9432 7.96155 13.9432C8.94052 13.9432 9.71193 13.7905 10.2778 13.4861C10.8426 13.1588 11.126 12.7017 11.126 12.114C11.126 11.6789 10.9953 11.3525 10.7338 11.135C10.4734 10.9174 10.1041 10.7648 9.62511 10.6779C9.1471 10.5692 8.36372 10.4494 7.27596 10.3187C5.79702 10.1221 4.56756 9.8716 3.58958 9.56723C2.61061 9.26286 1.82722 8.78385 1.23944 8.1302C0.652651 7.47755 0.359258 6.60635 0.359258 5.5186C0.359258 4.42985 0.652651 3.47182 1.23944 2.64453C1.84918 1.79529 2.69743 1.14264 3.78518 0.685583C4.87193 0.228528 6.12235 0 7.53742 0C9.8207 0.0219546 11.6589 0.510944 13.051 1.46896C14.4651 2.42698 15.2265 3.75524 15.3353 5.45273H10.9623C10.8975 4.82203 10.5602 4.31009 9.95143 3.9179C9.36465 3.50476 8.60322 3.29818 7.66815 3.29818C6.79695 3.29818 6.09041 3.46085 5.54654 3.78717C5.02462 4.1145 4.76316 4.5496 4.76316 5.09347C4.76316 5.48566 4.90486 5.77906 5.18728 5.97565C5.47069 6.17125 5.83993 6.31295 6.29699 6.39977C6.75304 6.48659 7.51547 6.58539 8.58127 6.69417C10.8426 6.95463 12.572 7.44461 13.7695 8.16313C14.987 8.85969 15.5958 10.0682 15.5958 11.7876C15.5958 12.8764 15.2694 13.8344 14.6168 14.6617C13.9861 15.489 13.0949 16.1307 11.9413 16.5877C10.8107 17.0238 9.49438 17.2414 7.99448 17.2414C5.66629 17.2414 3.7742 16.7294 2.31721 15.7065C0.859224 14.6617 0.0868206 13.2466 0 11.4613H4.37196Z" fill="#222221"/>
</svg>
